<svg width="1346" height="720" xmlns="http://www.w3.org/2000/svg" xmlns:xlink="http://www.w3.org/1999/xlink" overflow="hidden"><defs><clipPath id="clip0"><rect x="0" y="0" width="1346" height="720"/></clipPath></defs><g clip-path="url(#clip0)"><rect x="0" y="0" width="1346" height="719.732" fill="#003D59"/><path d="M31.5 168.437 150 168.437 223.5 241.91 150 315.383 31.5 315.383Z" stroke="#2F528F" stroke-width="1.33383" stroke-miterlimit="8" fill="#FFFFFF" fill-rule="evenodd"/><path d="M235.5 168.437 354 168.437 427.5 241.91 354 315.383 235.5 315.383Z" stroke="#2F528F" stroke-width="1.33383" stroke-miterlimit="8" fill="#FFFFFF" fill-rule="evenodd"/><path d="M439.5 168.437 559 168.437 632.5 241.91 559 315.383 439.5 315.383Z" stroke="#2F528F" stroke-width="1.33383" stroke-miterlimit="8" fill="#FFFFFF" fill-rule="evenodd"/><path d="M862.5 167.438 981 167.438 1054.5 240.911 981 314.383 862.5 314.383Z" stroke="#2F528F" stroke-width="1.33383" stroke-miterlimit="8" fill="#FFFFFF" fill-rule="evenodd"/><text fill="#FF6900" font-family="Calibri,Calibri_MSFontService,sans-serif" font-weight="400" font-size="43" transform="matrix(1 0 0 0.999629 48.5944 229)">Data <tspan font-size="43" x="0" y="51.019">Store</tspan><tspan font-size="43" x="210.987" y="26.0097">Excel</tspan><tspan font-size="32" x="407.584" y="3.00111">Statistical </tspan><tspan font-size="32" x="407.584" y="41.0152">Software</tspan><tspan font-size="43" x="841.983" y="27.01">Word</tspan></text><path d="M1070.5 168.437 1189 168.437 1262.5 241.91 1189 315.383 1070.5 315.383Z" stroke="#2F528F" stroke-width="1.33383" stroke-miterlimit="8" fill="#FFFFFF" fill-rule="evenodd"/><text fill="#FF6900" font-family="Calibri,Calibri_MSFontService,sans-serif" font-weight="400" font-size="43" transform="matrix(1 0 0 0.999629 1098.71 256)">PDF</text><path d="M651.5 167.438 770 167.438 843.5 240.911 770 314.383 651.5 314.383Z" stroke="#2F528F" stroke-width="1.33383" stroke-miterlimit="8" fill="#FFFFFF" fill-rule="evenodd"/><text fill="#FF6900" font-family="Calibri,Calibri_MSFontService,sans-serif" font-weight="400" font-size="32" transform="matrix(1 0 0 0.999629 672.017 232)">Quality <tspan font-size="32" x="0" y="38.0141">Checks</tspan><tspan fill="#FFFFFF" font-size="43" x="-644.651" y="-96.0357">Traditional Analytical Process</tspan><tspan fill="#FFFFFF" font-size="43" x="-633.638" y="170.063">Reproducible Analytical Pipeline</tspan></text><path d="M39.5 428.341 212 428.341 322.5 538.8 212 649.259 39.5 649.259Z" stroke="#2F528F" stroke-width="1.33383" stroke-miterlimit="8" fill="#FFFFFF" fill-rule="evenodd"/><text fill="#FF6900" font-family="Calibri,Calibri_MSFontService,sans-serif" font-weight="400" font-size="64" transform="matrix(1 0 0 0.999629 67.6329 509)">Data <tspan font-size="64" x="0" y="77.0286">Store</tspan></text><path d="M379.5 428.341 552 428.341 662.5 538.8 552 649.259 379.5 649.259Z" stroke="#2F528F" stroke-width="1.33383" stroke-miterlimit="8" fill="#FFFFFF" fill-rule="evenodd"/><text fill="#FF6900" font-family="Calibri,Calibri_MSFontService,sans-serif" font-weight="400" font-size="53" transform="matrix(1 0 0 0.999629 404.095 491)">R/<tspan font-size="53" x="0" y="64.0238">Python </tspan><tspan font-size="53" x="0" y="128.048">Scripts</tspan></text><path d="M701.5 428.341 874 428.341 984.5 538.8 874 649.259 701.5 649.259Z" stroke="#2F528F" stroke-width="1.33383" stroke-miterlimit="8" fill="#FFFFFF" fill-rule="evenodd"/><text fill="#FF6900" font-family="Calibri,Calibri_MSFontService,sans-serif" font-weight="400" font-size="53" transform="matrix(1 0 0 0.999629 728.465 523)">Final <tspan font-size="53" x="0" y="64.0238">Report</tspan></text></g></svg>