<svg width="921" height="656" xmlns="http://www.w3.org/2000/svg" xmlns:xlink="http://www.w3.org/1999/xlink" overflow="hidden"><defs><clipPath id="clip0"><rect x="0" y="0" width="921" height="656"/></clipPath><clipPath id="clip1"><rect x="0" y="-7" width="922" height="656"/></clipPath><clipPath id="clip2"><rect x="-1" y="-7" width="922" height="656"/></clipPath><clipPath id="clip3"><rect x="35.1326" y="5.12449" width="873.298" height="610.087"/></clipPath><clipPath id="clip4"><rect x="35.1326" y="512.37" width="873.298" height="2.23932"/></clipPath><clipPath id="clip5"><rect x="35.1326" y="348.901" width="873.298" height="4.47861"/></clipPath><clipPath id="clip6"><rect x="35.1326" y="185.432" width="873.298" height="4.47859"/></clipPath><clipPath id="clip7"><rect x="35.1326" y="21.963" width="873.298" height="4.4786"/></clipPath><clipPath id="clip8"><rect x="147.11" y="5.12449" width="4.4847" height="610.087"/></clipPath><clipPath id="clip9"><rect x="396.01" y="5.12449" width="2.24234" height="610.087"/></clipPath><clipPath id="clip10"><rect x="642.669" y="5.12449" width="4.48468" height="610.087"/></clipPath><clipPath id="clip11"><rect x="891.569" y="5.12449" width="4.48468" height="610.087"/></clipPath><clipPath id="clip12"><rect x="35.1326" y="592.985" width="873.298" height="4.47864"/></clipPath><clipPath id="clip13"><rect x="35.1326" y="429.516" width="873.298" height="4.47858"/></clipPath><clipPath id="clip14"><rect x="35.1326" y="266.047" width="873.298" height="4.47858"/></clipPath><clipPath id="clip15"><rect x="35.1326" y="102.578" width="873.298" height="6.7179"/></clipPath><clipPath id="clip16"><rect x="270.439" y="5.12449" width="4.48471" height="610.087"/></clipPath><clipPath id="clip17"><rect x="519.34" y="5.12449" width="4.48468" height="610.087"/></clipPath><clipPath id="clip18"><rect x="768.24" y="5.12449" width="4.48468" height="610.087"/></clipPath></defs><g clip-path="url(#clip0)"><rect x="0" y="0" width="921" height="655.596" fill="#FFFFFF"/><g clip-path="url(#clip1)"><g clip-path="url(#clip2)"><path d="M0 0 958.421 0 958.421 691.944 0 691.944Z" fill="#FFFFFF" transform="matrix(1.00136 0 0 1 -39.005 -7.14793)"/><path d="M0 0 958.421 0 958.421 691.944 0 691.944Z" fill="#FFFFFF" transform="matrix(1.00136 0 0 1 -39.005 -7.14793)"/><path d="M0 691.944 958.421 691.944 958.421 0 0 0Z" stroke="#FFFFFF" stroke-width="2.38928" stroke-linecap="round" stroke-linejoin="round" stroke-miterlimit="10" fill="none" transform="matrix(1.00136 0 0 1 -39.005 -7.14793)"/><g clip-path="url(#clip3)"><path d="M74.0369 622.359 946.148 622.359 946.148 12.2724 74.0369 12.2724Z" fill="#EBEBEB" transform="matrix(1.00136 0 0 1 -39.005 -7.14793)"/></g><g clip-path="url(#clip4)"><path d="M74.0369 520.777 946.148 520.777" stroke="#FFFFFF" stroke-width="1.19464" stroke-linejoin="round" stroke-miterlimit="10" fill="none" transform="matrix(1.00136 0 0 1 -39.005 -7.14793)"/></g><g clip-path="url(#clip5)"><path d="M74.0369 357.72 946.148 357.72" stroke="#FFFFFF" stroke-width="1.19464" stroke-linejoin="round" stroke-miterlimit="10" fill="none" transform="matrix(1.00136 0 0 1 -39.005 -7.14793)"/></g><g clip-path="url(#clip6)"><path d="M74.0369 194.662 946.148 194.662" stroke="#FFFFFF" stroke-width="1.19464" stroke-linejoin="round" stroke-miterlimit="10" fill="none" transform="matrix(1.00136 0 0 1 -39.005 -7.14793)"/></g><g clip-path="url(#clip7)"><path d="M74.0369 31.6039 946.148 31.6039" stroke="#FFFFFF" stroke-width="1.19464" stroke-linejoin="round" stroke-miterlimit="10" fill="none" transform="matrix(1.00136 0 0 1 -39.005 -7.14793)"/></g><g clip-path="url(#clip8)"><path d="M188.005 622.359 188.005 12.2724" stroke="#FFFFFF" stroke-width="1.19464" stroke-linejoin="round" stroke-miterlimit="10" fill="none" transform="matrix(1.00136 0 0 1 -39.005 -7.14793)"/></g><g clip-path="url(#clip9)"><path d="M435.763 622.359 435.763 12.2724" stroke="#FFFFFF" stroke-width="1.19464" stroke-linejoin="round" stroke-miterlimit="10" fill="none" transform="matrix(1.00136 0 0 1 -39.005 -7.14793)"/></g><g clip-path="url(#clip10)"><path d="M683.529 622.359 683.529 12.2724" stroke="#FFFFFF" stroke-width="1.19464" stroke-linejoin="round" stroke-miterlimit="10" fill="none" transform="matrix(1.00136 0 0 1 -39.005 -7.14793)"/></g><g clip-path="url(#clip11)"><path d="M931.287 622.359 931.287 12.2724" stroke="#FFFFFF" stroke-width="1.19464" stroke-linejoin="round" stroke-miterlimit="10" fill="none" transform="matrix(1.00136 0 0 1 -39.005 -7.14793)"/></g><g clip-path="url(#clip12)"><path d="M74.0369 602.302 946.148 602.302" stroke="#FFFFFF" stroke-width="2.38928" stroke-linejoin="round" stroke-miterlimit="10" fill="none" transform="matrix(1.00136 0 0 1 -39.005 -7.14793)"/></g><g clip-path="url(#clip13)"><path d="M74.0369 439.244 946.148 439.244" stroke="#FFFFFF" stroke-width="2.38928" stroke-linejoin="round" stroke-miterlimit="10" fill="none" transform="matrix(1.00136 0 0 1 -39.005 -7.14793)"/></g><g clip-path="url(#clip14)"><path d="M74.0369 276.186 946.148 276.186" stroke="#FFFFFF" stroke-width="2.38928" stroke-linejoin="round" stroke-miterlimit="10" fill="none" transform="matrix(1.00136 0 0 1 -39.005 -7.14793)"/></g><g clip-path="url(#clip15)"><path d="M74.0369 113.128 946.148 113.128" stroke="#FFFFFF" stroke-width="2.38928" stroke-linejoin="round" stroke-miterlimit="10" fill="none" transform="matrix(1.00136 0 0 1 -39.005 -7.14793)"/></g><g clip-path="url(#clip16)"><path d="M311.884 622.359 311.884 12.2724" stroke="#FFFFFF" stroke-width="2.38928" stroke-linejoin="round" stroke-miterlimit="10" fill="none" transform="matrix(1.00136 0 0 1 -39.005 -7.14793)"/></g><g clip-path="url(#clip17)"><path d="M559.65 622.359 559.65 12.2724" stroke="#FFFFFF" stroke-width="2.38928" stroke-linejoin="round" stroke-miterlimit="10" fill="none" transform="matrix(1.00136 0 0 1 -39.005 -7.14793)"/></g><g clip-path="url(#clip18)"><path d="M807.408 622.359 807.408 12.2724" stroke="#FFFFFF" stroke-width="2.38928" stroke-linejoin="round" stroke-miterlimit="10" fill="none" transform="matrix(1.00136 0 0 1 -39.005 -7.14793)"/></g><path d="M217.16 537.082C217.16 542.917 208.404 542.917 208.404 537.082 208.404 531.248 217.16 531.248 217.16 537.082" stroke="#000000" stroke-width="1.58691" stroke-linecap="round" stroke-linejoin="round" stroke-miterlimit="10" transform="matrix(1.00136 0 0 1 -39.005 -7.14793)"/><path d="M118.053 504.472C118.053 510.307 109.306 510.307 109.306 504.472 109.306 498.638 118.053 498.638 118.053 504.472" stroke="#000000" stroke-width="1.58691" stroke-linecap="round" stroke-linejoin="round" stroke-miterlimit="10" transform="matrix(1.00136 0 0 1 -39.005 -7.14793)"/><path d="M217.16 439.244C217.16 445.087 208.404 445.087 208.404 439.244 208.404 433.41 217.16 433.41 217.16 439.244" stroke="#000000" stroke-width="1.58691" stroke-linecap="round" stroke-linejoin="round" stroke-miterlimit="10" transform="matrix(1.00136 0 0 1 -39.005 -7.14793)"/><path d="M613.577 276.186C613.577 282.029 604.821 282.029 604.821 276.186 604.821 270.352 613.577 270.352 613.577 276.186" stroke="#000000" stroke-width="1.58691" stroke-linecap="round" stroke-linejoin="round" stroke-miterlimit="10" transform="matrix(1.00136 0 0 1 -39.005 -7.14793)"/><path d="M316.266 276.186C316.266 282.029 307.51 282.029 307.51 276.186 307.51 270.352 316.266 270.352 316.266 276.186" stroke="#000000" stroke-width="1.58691" stroke-linecap="round" stroke-linejoin="round" stroke-miterlimit="10" transform="matrix(1.00136 0 0 1 -39.005 -7.14793)"/><path d="M514.471 276.186C514.471 282.029 505.715 282.029 505.715 276.186 505.715 270.352 514.471 270.352 514.471 276.186" stroke="#000000" stroke-width="1.58691" stroke-linecap="round" stroke-linejoin="round" stroke-miterlimit="10" transform="matrix(1.00136 0 0 1 -39.005 -7.14793)"/><path d="M910.888 308.805C910.888 314.639 902.132 314.639 902.132 308.805 902.132 302.962 910.888 302.962 910.888 308.805" stroke="#000000" stroke-width="1.58691" stroke-linecap="round" stroke-linejoin="round" stroke-miterlimit="10" transform="matrix(1.00136 0 0 1 -39.005 -7.14793)"/><path d="M113.679 324.629 123.713 324.305 133.754 323.946 143.788 323.544 153.821 323.089 163.863 322.59 173.896 322.048 183.929 321.445 193.962 320.789 204.004 320.071 214.037 319.284 224.07 318.436 234.112 317.517 244.145 316.529 254.178 315.453 264.22 314.298 274.253 313.056 284.286 311.718 294.328 310.283 304.361 308.752 314.394 307.108 324.427 305.367 334.469 303.504 344.502 301.527 354.535 299.428 364.577 297.206 374.61 294.853 384.644 292.377 394.685 289.771 404.719 287.033 414.752 284.155 424.794 281.155 434.827 278.014 444.86 274.743 454.893 271.349 464.935 267.824 474.968 264.167 485.001 260.397 495.043 256.505 505.076 252.507 515.109 248.387 525.151 244.171 535.184 239.85 545.217 235.433 555.259 230.919 565.292 226.318 575.325 221.63 585.367 216.862 595.4 212.025 605.433 207.109 615.466 202.123 625.508 197.085 635.541 191.976 645.575 186.807 655.616 181.593 665.65 176.319 675.683 171 685.725 165.638 695.758 160.232 705.791 154.792 715.833 149.298 725.866 143.779 735.899 138.224 745.932 132.635 755.974 127.019 766.007 121.368 776.04 115.7 786.082 109.997 796.115 104.276 806.148 98.5205 816.19 92.756 826.223 86.9653 836.256 81.1484 846.298 75.3227 856.331 69.4795 866.364 63.6101 876.397 57.732 886.439 51.8363 896.472 45.9232 906.506 40.0013 906.506 422.694 896.472 422.554 886.439 422.423 876.397 422.301 866.364 422.204 856.331 422.117 846.298 422.047 836.256 422.003 826.223 421.968 816.19 421.959 806.148 421.968 796.115 421.994 786.082 422.056 776.04 422.134 766.007 422.231 755.974 422.371 745.932 422.528 735.899 422.72 725.866 422.939 715.833 423.202 705.791 423.499 695.758 423.823 685.725 424.199 675.683 424.619 665.65 425.073 655.616 425.59 645.575 426.149 635.541 426.762 625.508 427.435 615.466 428.17 605.433 428.966 595.4 429.832 585.367 430.768 575.325 431.783 565.292 432.876 555.259 434.057 545.217 435.325 535.184 436.681 525.151 438.142 515.109 439.699 505.076 441.361 495.043 443.137 485.001 445.026 474.968 447.038 464.935 449.163 454.893 451.42 444.86 453.799 434.827 456.31 424.794 458.952 414.752 461.725 404.719 464.629 394.685 467.673 384.644 470.839 374.61 474.146 364.577 477.575 354.535 481.126 344.502 484.809 334.469 488.614 324.427 492.532 314.394 496.565 304.361 500.702 294.328 504.954 284.286 509.292 274.253 513.736 264.22 518.276 254.178 522.894 244.145 527.6 234.112 532.385 224.07 537.248 214.037 542.182 204.004 547.177 193.962 552.241 183.929 557.358 173.896 562.537 163.863 567.768 153.821 573.051 143.788 578.378 133.754 583.758 123.713 589.172 113.679 594.63Z" fill="#999999" fill-opacity="0.4" transform="matrix(1.00136 0 0 1 -39.005 -7.14793)"/><path d="M113.679 459.634 123.713 456.739 133.754 453.852 143.788 450.957 153.821 448.07 163.863 445.183 173.896 442.288 193.962 436.515 204.004 433.62 224.07 427.846 234.112 424.951 254.178 419.178 264.22 416.282 284.286 410.509 294.328 407.614 314.394 401.841 324.427 398.945 334.469 396.059 344.502 393.172 354.535 390.277 364.577 387.39 374.61 384.495 384.644 381.608 394.685 378.722 404.719 375.826 414.752 372.94 424.794 370.053 434.827 367.158 454.893 361.385 464.935 358.489 485.001 352.716 495.043 349.821 515.109 344.048 525.151 341.152 545.217 335.379 555.259 332.484 575.325 326.71 585.367 323.815 595.4 320.928 605.433 318.033 615.466 315.147 625.508 312.26 635.541 309.365 645.575 306.478 655.616 303.591 665.65 300.696 675.683 297.809 685.725 294.923 695.758 292.028 705.791 289.141 715.833 286.254 725.866 283.359 745.932 277.586 755.974 274.69 776.04 268.917 786.082 266.022 806.148 260.249 816.19 257.353 836.256 251.58 846.298 248.685 856.331 245.798 866.364 242.903 876.397 240.016 886.439 237.13 896.472 234.234 906.506 231.348" stroke="#3366FF" stroke-width="4.77857" stroke-linejoin="round" stroke-miterlimit="10" fill="none" transform="matrix(1.00136 0 0 1 -39.005 -7.14793)"/><path d="M0.822244-6.95408C0.813495-8.61606 0.979694-9.95439 1.32958-10.9778 1.66198-11.9925 2.17807-12.7798 2.86036-13.3308 3.5339-13.8819 4.38238-14.1531 5.41456-14.1618 6.16682-14.1531 6.83162-14.0044 7.40894-13.707 7.97751-13.4008 8.44986-12.9635 8.81725-12.3861 9.18463-11.8088 9.47329-11.109 9.69197-10.2868 9.90191-9.46454 10.0069-8.35364 10.0156-6.95408 10.0069-5.30085 9.84068-3.96251 9.49953-2.94783 9.15839-1.9244 8.65105-1.13715 7.97751-0.586067 7.29522-0.0349891 6.43799 0.236177 5.41456 0.244923 4.04999 0.236177 2.98282-0.244923 2.21306-1.22462 1.2771-2.388 0.813495-4.30366 0.822244-6.95408ZM2.59794-6.95408C2.59794-4.63605 2.8691-3.08779 3.41144-2.32677 3.95376-1.55701 4.61856-1.18088 5.41456-1.18088 6.21056-1.18088 6.8841-1.56576 7.42643-2.33552 7.96876-3.10528 8.23993-4.6448 8.23993-6.95408 8.23993-9.28085 7.96876-10.8204 7.42643-11.5814 6.8841-12.3424 6.20181-12.7273 5.39706-12.7273 4.59231-12.7273 3.96251-12.3861 3.49016-11.7213 2.89535-10.8466 2.59794-9.26336 2.59794-6.95408Z" fill="#4D4D4D" transform="matrix(1.00136 0 0 1 13.1033 602.213)"/><path d="M0.822244-3.69135 2.63293-3.8488C2.76414-2.95658 3.07904-2.29179 3.56889-1.84567 4.05873-1.39956 4.65355-1.18088 5.35333-1.18088 6.18432-1.18088 6.8841-1.49578 7.47017-2.12559 8.03874-2.75539 8.3274-3.58638 8.33615-4.6273 8.3274-5.607 8.04749-6.38551 7.49641-6.96282 6.93658-7.5314 6.21056-7.82006 5.31834-7.82006 4.75851-7.82006 4.25992-7.68885 3.81381-7.43518 3.35895-7.18151 3.00906-6.85786 2.75539-6.45548L1.1284-6.66542 2.49297-13.9169 9.50828-13.9169 9.50828-12.2549 3.87504-12.2549 3.11403-8.46735C3.95376-9.04468 4.84599-9.34208 5.78194-9.35083 7.00656-9.34208 8.04749-8.91347 8.89597-8.07373 9.74446-7.2165 10.1643-6.12309 10.1731-4.78476 10.1643-3.49891 9.79694-2.39675 9.05342-1.46954 8.14371-0.332397 6.91034 0.236177 5.35333 0.244923 4.06748 0.236177 3.01781-0.113715 2.20431-0.830991 1.39082-1.54827 0.927212-2.50172 0.822244-3.69135Z" fill="#4D4D4D" transform="matrix(1.00136 0 0 1 13.1033 439.155)"/><path d="M7.33896 0 5.607 0 5.607-11.0391C5.18713-10.6367 4.6448-10.2431 3.97126-9.84068 3.28897-9.4383 2.67666-9.14089 2.14308-8.94845L2.14308-10.6192C3.10528-11.0653 3.95376-11.6164 4.67979-12.2724 5.40581-12.9197 5.9219-13.5495 6.22805-14.1618L7.33896-14.1618Z" fill="#4D4D4D" transform="matrix(1.00136 0 0 1 2.12808 276.097)"/><path d="M0.822244-6.95408C0.813495-8.61606 0.979694-9.95439 1.32958-10.9778 1.66198-11.9925 2.17807-12.7798 2.86036-13.3308 3.5339-13.8819 4.38238-14.1531 5.41456-14.1618 6.16682-14.1531 6.83162-14.0044 7.40894-13.707 7.97751-13.4008 8.44986-12.9635 8.81725-12.3861 9.18463-11.8088 9.47329-11.109 9.69197-10.2868 9.90191-9.46454 10.0069-8.35364 10.0156-6.95408 10.0069-5.30085 9.84068-3.96251 9.49953-2.94783 9.15839-1.9244 8.65105-1.13715 7.97751-0.586067 7.29522-0.0349891 6.43799 0.236177 5.41456 0.244923 4.04999 0.236177 2.98282-0.244923 2.21306-1.22462 1.2771-2.388 0.813495-4.30366 0.822244-6.95408ZM2.59794-6.95408C2.59794-4.63605 2.8691-3.08779 3.41144-2.32677 3.95376-1.55701 4.61856-1.18088 5.41456-1.18088 6.21056-1.18088 6.8841-1.56576 7.42643-2.33552 7.96876-3.10528 8.23993-4.6448 8.23993-6.95408 8.23993-9.28085 7.96876-10.8204 7.42643-11.5814 6.8841-12.3424 6.20181-12.7273 5.39706-12.7273 4.59231-12.7273 3.96251-12.3861 3.49016-11.7213 2.89535-10.8466 2.59794-9.26336 2.59794-6.95408Z" fill="#4D4D4D" transform="matrix(1.00136 0 0 1 13.1024 276.097)"/><path d="M7.33896 0 5.607 0 5.607-11.0391C5.18713-10.6367 4.6448-10.2431 3.97126-9.84068 3.28897-9.4383 2.67666-9.14089 2.14308-8.94845L2.14308-10.6192C3.10528-11.0653 3.95376-11.6164 4.67979-12.2724 5.40581-12.9197 5.9219-13.5495 6.22805-14.1618L7.33896-14.1618Z" fill="#4D4D4D" transform="matrix(1.00136 0 0 1 2.12808 113.04)"/><path d="M0.822244-3.69135 2.63293-3.8488C2.76414-2.95658 3.07904-2.29179 3.56889-1.84567 4.05873-1.39956 4.65355-1.18088 5.35333-1.18088 6.18432-1.18088 6.8841-1.49578 7.47017-2.12559 8.03874-2.75539 8.3274-3.58638 8.33615-4.6273 8.3274-5.607 8.04749-6.38551 7.49641-6.96282 6.93658-7.5314 6.21056-7.82006 5.31834-7.82006 4.75851-7.82006 4.25992-7.68885 3.81381-7.43518 3.35895-7.18151 3.00906-6.85786 2.75539-6.45548L1.1284-6.66542 2.49297-13.9169 9.50828-13.9169 9.50828-12.2549 3.87504-12.2549 3.11403-8.46735C3.95376-9.04468 4.84599-9.34208 5.78194-9.35083 7.00656-9.34208 8.04749-8.91347 8.89597-8.07373 9.74446-7.2165 10.1643-6.12309 10.1731-4.78476 10.1643-3.49891 9.79694-2.39675 9.05342-1.46954 8.14371-0.332397 6.91034 0.236177 5.35333 0.244923 4.06748 0.236177 3.01781-0.113715 2.20431-0.830991 1.39082-1.54827 0.927212-2.50172 0.822244-3.69135Z" fill="#4D4D4D" transform="matrix(1.00136 0 0 1 13.1024 113.04)"/><path d="M67.905 602.302 74.0369 602.302" stroke="#333333" stroke-width="2.38928" stroke-linejoin="round" stroke-miterlimit="10" fill="none" transform="matrix(1.00136 0 0 1 -39.005 -7.14793)"/><path d="M67.905 439.244 74.0369 439.244" stroke="#333333" stroke-width="2.38928" stroke-linejoin="round" stroke-miterlimit="10" fill="none" transform="matrix(1.00136 0 0 1 -39.005 -7.14793)"/><path d="M67.905 276.186 74.0369 276.186" stroke="#333333" stroke-width="2.38928" stroke-linejoin="round" stroke-miterlimit="10" fill="none" transform="matrix(1.00136 0 0 1 -39.005 -7.14793)"/><path d="M67.905 113.128 74.0369 113.128" stroke="#333333" stroke-width="2.38928" stroke-linejoin="round" stroke-miterlimit="10" fill="none" transform="matrix(1.00136 0 0 1 -39.005 -7.14793)"/><path d="M311.884 628.491 311.884 622.359" stroke="#333333" stroke-width="2.38928" stroke-linejoin="round" stroke-miterlimit="10" fill="none" transform="matrix(1.00136 0 0 1 -39.005 -7.14793)"/><path d="M559.65 628.491 559.65 622.359" stroke="#333333" stroke-width="2.38928" stroke-linejoin="round" stroke-miterlimit="10" fill="none" transform="matrix(1.00136 0 0 1 -39.005 -7.14793)"/><path d="M807.408 628.491 807.408 622.359" stroke="#333333" stroke-width="2.38928" stroke-linejoin="round" stroke-miterlimit="10" fill="none" transform="matrix(1.00136 0 0 1 -39.005 -7.14793)"/><path d="M0.822244-3.69135 2.63293-3.8488C2.76414-2.95658 3.07904-2.29179 3.56889-1.84567 4.05873-1.39956 4.65355-1.18088 5.35333-1.18088 6.18432-1.18088 6.8841-1.49578 7.47017-2.12559 8.03874-2.75539 8.3274-3.58638 8.33615-4.6273 8.3274-5.607 8.04749-6.38551 7.49641-6.96282 6.93658-7.5314 6.21056-7.82006 5.31834-7.82006 4.75851-7.82006 4.25992-7.68885 3.81381-7.43518 3.35895-7.18151 3.00906-6.85786 2.75539-6.45548L1.1284-6.66542 2.49297-13.9169 9.50828-13.9169 9.50828-12.2549 3.87504-12.2549 3.11403-8.46735C3.95376-9.04468 4.84599-9.34208 5.78194-9.35083 7.00656-9.34208 8.04749-8.91347 8.89597-8.07373 9.74446-7.2165 10.1643-6.12309 10.1731-4.78476 10.1643-3.49891 9.79694-2.39675 9.05342-1.46954 8.14371-0.332397 6.91034 0.236177 5.35333 0.244923 4.06748 0.236177 3.01781-0.113715 2.20431-0.830991 1.39082-1.54827 0.927212-2.50172 0.822244-3.69135Z" fill="#4D4D4D" transform="matrix(1.00136 0 0 1 259.586 640.36)"/><path d="M1.79319 0 1.79319-1.97688 3.76133-1.97688 3.76133 0Z" fill="#4D4D4D" transform="matrix(1.00136 0 0 1 270.561 640.36)"/><path d="M0.822244-6.95408C0.813495-8.61606 0.979694-9.95439 1.32958-10.9778 1.66198-11.9925 2.17807-12.7798 2.86036-13.3308 3.5339-13.8819 4.38238-14.1531 5.41456-14.1618 6.16682-14.1531 6.83162-14.0044 7.40894-13.707 7.97751-13.4008 8.44986-12.9635 8.81725-12.3861 9.18463-11.8088 9.47329-11.109 9.69197-10.2868 9.90191-9.46454 10.0069-8.35364 10.0156-6.95408 10.0069-5.30085 9.84068-3.96251 9.49953-2.94783 9.15839-1.9244 8.65105-1.13715 7.97751-0.586067 7.29522-0.0349891 6.43799 0.236177 5.41456 0.244923 4.04999 0.236177 2.98282-0.244923 2.21306-1.22462 1.2771-2.388 0.813495-4.30366 0.822244-6.95408ZM2.59794-6.95408C2.59794-4.63605 2.8691-3.08779 3.41144-2.32677 3.95376-1.55701 4.61856-1.18088 5.41456-1.18088 6.21056-1.18088 6.8841-1.56576 7.42643-2.33552 7.96876-3.10528 8.23993-4.6448 8.23993-6.95408 8.23993-9.28085 7.96876-10.8204 7.42643-11.5814 6.8841-12.3424 6.20181-12.7273 5.39706-12.7273 4.59231-12.7273 3.96251-12.3861 3.49016-11.7213 2.89535-10.8466 2.59794-9.26336 2.59794-6.95408Z" fill="#4D4D4D" transform="matrix(1.00136 0 0 1 276.043 640.36)"/><path d="M0.935958-12.2549 0.935958-13.9256 10.0681-13.9256 10.0681-12.5786C9.15839-11.6164 8.26617-10.348 7.39144-8.76476 6.49922-7.17276 5.82568-5.53702 5.35333-3.87504 5.00344-2.68541 4.77601-1.39956 4.68854 0L2.90409 0C2.92159-1.10216 3.14027-2.44049 3.56014-4.015 3.97126-5.5895 4.57482-7.10278 5.35333-8.56358 6.13183-10.0244 6.96282-11.2577 7.8463-12.2549Z" fill="#4D4D4D" transform="matrix(1.00136 0 0 1 507.69 640.36)"/><path d="M1.79319 0 1.79319-1.97688 3.76133-1.97688 3.76133 0Z" fill="#4D4D4D" transform="matrix(1.00136 0 0 1 518.664 640.36)"/><path d="M0.822244-3.69135 2.63293-3.8488C2.76414-2.95658 3.07904-2.29179 3.56889-1.84567 4.05873-1.39956 4.65355-1.18088 5.35333-1.18088 6.18432-1.18088 6.8841-1.49578 7.47017-2.12559 8.03874-2.75539 8.3274-3.58638 8.33615-4.6273 8.3274-5.607 8.04749-6.38551 7.49641-6.96282 6.93658-7.5314 6.21056-7.82006 5.31834-7.82006 4.75851-7.82006 4.25992-7.68885 3.81381-7.43518 3.35895-7.18151 3.00906-6.85786 2.75539-6.45548L1.1284-6.66542 2.49297-13.9169 9.50828-13.9169 9.50828-12.2549 3.87504-12.2549 3.11403-8.46735C3.95376-9.04468 4.84599-9.34208 5.78194-9.35083 7.00656-9.34208 8.04749-8.91347 8.89597-8.07373 9.74446-7.2165 10.1643-6.12309 10.1731-4.78476 10.1643-3.49891 9.79694-2.39675 9.05342-1.46954 8.14371-0.332397 6.91034 0.236177 5.35333 0.244923 4.06748 0.236177 3.01781-0.113715 2.20431-0.830991 1.39082-1.54827 0.927212-2.50172 0.822244-3.69135Z" fill="#4D4D4D" transform="matrix(1.00136 0 0 1 524.147 640.36)"/><path d="M7.33896 0 5.607 0 5.607-11.0391C5.18713-10.6367 4.6448-10.2431 3.97126-9.84068 3.28897-9.4383 2.67666-9.14089 2.14308-8.94845L2.14308-10.6192C3.10528-11.0653 3.95376-11.6164 4.67979-12.2724 5.40581-12.9197 5.9219-13.5495 6.22805-14.1618L7.33896-14.1618Z" fill="#4D4D4D" transform="matrix(1.00136 0 0 1 750.301 640.36)"/><path d="M0.822244-6.95408C0.813495-8.61606 0.979694-9.95439 1.32958-10.9778 1.66198-11.9925 2.17807-12.7798 2.86036-13.3308 3.5339-13.8819 4.38238-14.1531 5.41456-14.1618 6.16682-14.1531 6.83162-14.0044 7.40894-13.707 7.97751-13.4008 8.44986-12.9635 8.81725-12.3861 9.18463-11.8088 9.47329-11.109 9.69197-10.2868 9.90191-9.46454 10.0069-8.35364 10.0156-6.95408 10.0069-5.30085 9.84068-3.96251 9.49953-2.94783 9.15839-1.9244 8.65105-1.13715 7.97751-0.586067 7.29522-0.0349891 6.43799 0.236177 5.41456 0.244923 4.04999 0.236177 2.98282-0.244923 2.21306-1.22462 1.2771-2.388 0.813495-4.30366 0.822244-6.95408ZM2.59794-6.95408C2.59794-4.63605 2.8691-3.08779 3.41144-2.32677 3.95376-1.55701 4.61856-1.18088 5.41456-1.18088 6.21056-1.18088 6.8841-1.56576 7.42643-2.33552 7.96876-3.10528 8.23993-4.6448 8.23993-6.95408 8.23993-9.28085 7.96876-10.8204 7.42643-11.5814 6.8841-12.3424 6.20181-12.7273 5.39706-12.7273 4.59231-12.7273 3.96251-12.3861 3.49016-11.7213 2.89535-10.8466 2.59794-9.26336 2.59794-6.95408Z" fill="#4D4D4D" transform="matrix(1.00136 0 0 1 761.276 640.36)"/><path d="M1.79319 0 1.79319-1.97688 3.76133-1.97688 3.76133 0Z" fill="#4D4D4D" transform="matrix(1.00136 0 0 1 772.25 640.36)"/><path d="M0.822244-6.95408C0.813495-8.61606 0.979694-9.95439 1.32958-10.9778 1.66198-11.9925 2.17807-12.7798 2.86036-13.3308 3.5339-13.8819 4.38238-14.1531 5.41456-14.1618 6.16682-14.1531 6.83162-14.0044 7.40894-13.707 7.97751-13.4008 8.44986-12.9635 8.81725-12.3861 9.18463-11.8088 9.47329-11.109 9.69197-10.2868 9.90191-9.46454 10.0069-8.35364 10.0156-6.95408 10.0069-5.30085 9.84068-3.96251 9.49953-2.94783 9.15839-1.9244 8.65105-1.13715 7.97751-0.586067 7.29522-0.0349891 6.43799 0.236177 5.41456 0.244923 4.04999 0.236177 2.98282-0.244923 2.21306-1.22462 1.2771-2.388 0.813495-4.30366 0.822244-6.95408ZM2.59794-6.95408C2.59794-4.63605 2.8691-3.08779 3.41144-2.32677 3.95376-1.55701 4.61856-1.18088 5.41456-1.18088 6.21056-1.18088 6.8841-1.56576 7.42643-2.33552 7.96876-3.10528 8.23993-4.6448 8.23993-6.95408 8.23993-9.28085 7.96876-10.8204 7.42643-11.5814 6.8841-12.3424 6.20181-12.7273 5.39706-12.7273 4.59231-12.7273 3.96251-12.3861 3.49016-11.7213 2.89535-10.8466 2.59794-9.26336 2.59794-6.95408Z" fill="#4D4D4D" transform="matrix(1.00136 0 0 1 777.732 640.36)"/><path d="M1.63574-15.1415 1.63574-17.6345 3.79632-17.6345 3.79632-15.1415ZM1.63574 0 1.63574-12.771 3.79632-12.771 3.79632 0Z" transform="matrix(1.00136 0 0 1 390.86 667.485)"/><path d="M1.62699 0 1.62699-12.771 3.56889-12.771 3.56889-10.9603C4.50484-12.3511 5.86067-13.0509 7.63636-13.0597 8.40612-13.0509 9.1059-12.911 9.7532-12.6398 10.3918-12.3599 10.8816-12.0013 11.2052-11.5551 11.5202-11.1003 11.7388-10.5667 11.8788-9.95439 11.9488-9.55202 11.9925-8.85223 12.0013-7.85505L12.0013 0 9.84068 0 9.84068-7.76757C9.84068-8.65105 9.7532-9.30709 9.58701-9.74446 9.41206-10.1731 9.11465-10.523 8.68604-10.7941 8.25742-11.0478 7.75008-11.179 7.18151-11.1878 6.2543-11.179 5.45829-10.8816 4.7935-10.3043 4.11122-9.70947 3.77882-8.60731 3.78757-6.98032L3.78757 0Z" transform="matrix(1.00136 0 0 1 396.34 667.485)"/><path d="M9.91065 0 9.91065-1.6095C9.08841-0.341144 7.89878 0.288659 6.34177 0.288659 5.30959 0.288659 4.37363 0.00874727 3.52515-0.551078 2.66792-1.1109 2.00312-1.88941 1.53952-2.90409 1.06717-3.90128 0.839738-5.06467 0.839738-6.37676 0.839738-7.64511 1.04967-8.79975 1.47829-9.84068 1.89816-10.8816 2.53671-11.6776 3.39394-12.2287 4.24242-12.7798 5.19588-13.0509 6.24555-13.0597 7.01531-13.0509 7.6976-12.8935 8.30116-12.5698 8.89597-12.2462 9.38582-11.8176 9.76195-11.3015L9.76195-17.6345 11.9225-17.6345 11.9225 0ZM3.07029-6.37676C3.07029-4.73227 3.41144-3.50765 4.10247-2.70291 4.78476-1.88941 5.59825-1.47829 6.54296-1.48704 7.47891-1.47829 8.28366-1.87192 8.94845-2.65042 9.61325-3.42018 9.94564-4.60106 9.94564-6.19307 9.94564-7.94252 9.6045-9.21962 8.93096-10.0419 8.25742-10.8466 7.42643-11.2577 6.44674-11.2665 5.47579-11.2577 4.67104-10.8641 4.03249-10.0856 3.38519-9.29835 3.07029-8.06498 3.07029-6.37676Z" transform="matrix(1.00136 0 0 1 410.058 667.485)"/><path d="M10.3655-4.11122 12.6048-3.84005C12.2462-2.51921 11.5901-1.50453 10.6367-0.787255 9.68323-0.0699781 8.46735 0.288659 6.98907 0.288659 5.1084 0.288659 3.62137-0.279913 2.53671-1.43455 1.43455-2.58044 0.892222-4.19869 0.900969-6.28054 0.892222-8.42362 1.4433-10.0856 2.56295-11.2752 3.66511-12.4561 5.09966-13.0509 6.8666-13.0597 8.56358-13.0509 9.96314-12.4736 11.0478-11.3102 12.1325-10.1468 12.6748-8.51109 12.6748-6.41175 12.6748-6.28054 12.666-6.0881 12.666-5.83443L3.14027-5.83443C3.21025-4.42612 3.61262-3.3502 4.3299-2.60669 5.03843-1.85442 5.9219-1.47829 6.99781-1.48704 7.78507-1.47829 8.46735-1.68822 9.02718-2.11684 9.58701-2.52796 10.0331-3.19275 10.3655-4.11122ZM3.26273-7.61012 10.3918-7.61012C10.2955-8.68604 10.0156-9.49078 9.56951-10.0331 8.86973-10.8641 7.97751-11.284 6.89285-11.284 5.88691-11.284 5.05592-10.9516 4.38238-10.2868 3.70009-9.62199 3.32396-8.72977 3.26273-7.61012Z" transform="matrix(1.00136 0 0 1 423.776 667.485)"/><path d="M1.62699 4.89847 1.62699-12.771 3.59513-12.771 3.59513-11.109C4.05873-11.7563 4.58357-12.2462 5.16964-12.5698 5.7557-12.8935 6.46423-13.0509 7.30397-13.0597 8.38863-13.0509 9.35083-12.771 10.1906-12.2199 11.0216-11.6514 11.6514-10.8641 12.0712-9.84068 12.4911-8.81725 12.701-7.6976 12.7098-6.48172 12.701-5.16964 12.4649-3.98875 12.0013-2.94783 11.5289-1.89816 10.8466-1.09341 9.96314-0.542332 9.06217 0.0174945 8.12621 0.288659 7.14652 0.288659 6.4205 0.288659 5.7732 0.139956 5.19588-0.166198 4.61856-0.472354 4.14621-0.857233 3.78757-1.32084L3.78757 4.89847ZM3.58638-6.31553C3.57763-4.66229 3.91003-3.44642 4.58357-2.66792 5.23961-1.87192 6.04436-1.47829 6.99781-1.48704 7.95127-1.47829 8.77351-1.88941 9.46454-2.71165 10.1468-3.52515 10.4967-4.78476 10.4967-6.49047 10.4967-8.11746 10.1556-9.33334 9.49078-10.1468 8.81725-10.9516 8.02124-11.3627 7.09403-11.3627 6.16682-11.3627 5.35333-10.9253 4.6448-10.0681 3.93627-9.20213 3.57763-7.95127 3.58638-6.31553Z" transform="matrix(1.00136 0 0 1 437.494 667.485)"/><path d="M10.3655-4.11122 12.6048-3.84005C12.2462-2.51921 11.5901-1.50453 10.6367-0.787255 9.68323-0.0699781 8.46735 0.288659 6.98907 0.288659 5.1084 0.288659 3.62137-0.279913 2.53671-1.43455 1.43455-2.58044 0.892222-4.19869 0.900969-6.28054 0.892222-8.42362 1.4433-10.0856 2.56295-11.2752 3.66511-12.4561 5.09966-13.0509 6.8666-13.0597 8.56358-13.0509 9.96314-12.4736 11.0478-11.3102 12.1325-10.1468 12.6748-8.51109 12.6748-6.41175 12.6748-6.28054 12.666-6.0881 12.666-5.83443L3.14027-5.83443C3.21025-4.42612 3.61262-3.3502 4.3299-2.60669 5.03843-1.85442 5.9219-1.47829 6.99781-1.48704 7.78507-1.47829 8.46735-1.68822 9.02718-2.11684 9.58701-2.52796 10.0331-3.19275 10.3655-4.11122ZM3.26273-7.61012 10.3918-7.61012C10.2955-8.68604 10.0156-9.49078 9.56951-10.0331 8.86973-10.8641 7.97751-11.284 6.89285-11.284 5.88691-11.284 5.05592-10.9516 4.38238-10.2868 3.70009-9.62199 3.32396-8.72977 3.26273-7.61012Z" transform="matrix(1.00136 0 0 1 451.212 667.485)"/><path d="M1.62699 0 1.62699-12.771 3.56889-12.771 3.56889-10.9603C4.50484-12.3511 5.86067-13.0509 7.63636-13.0597 8.40612-13.0509 9.1059-12.911 9.7532-12.6398 10.3918-12.3599 10.8816-12.0013 11.2052-11.5551 11.5202-11.1003 11.7388-10.5667 11.8788-9.95439 11.9488-9.55202 11.9925-8.85223 12.0013-7.85505L12.0013 0 9.84068 0 9.84068-7.76757C9.84068-8.65105 9.7532-9.30709 9.58701-9.74446 9.41206-10.1731 9.11465-10.523 8.68604-10.7941 8.25742-11.0478 7.75008-11.179 7.18151-11.1878 6.2543-11.179 5.45829-10.8816 4.7935-10.3043 4.11122-9.70947 3.77882-8.60731 3.78757-6.98032L3.78757 0Z" transform="matrix(1.00136 0 0 1 464.93 667.485)"/><path d="M9.91065 0 9.91065-1.6095C9.08841-0.341144 7.89878 0.288659 6.34177 0.288659 5.30959 0.288659 4.37363 0.00874727 3.52515-0.551078 2.66792-1.1109 2.00312-1.88941 1.53952-2.90409 1.06717-3.90128 0.839738-5.06467 0.839738-6.37676 0.839738-7.64511 1.04967-8.79975 1.47829-9.84068 1.89816-10.8816 2.53671-11.6776 3.39394-12.2287 4.24242-12.7798 5.19588-13.0509 6.24555-13.0597 7.01531-13.0509 7.6976-12.8935 8.30116-12.5698 8.89597-12.2462 9.38582-11.8176 9.76195-11.3015L9.76195-17.6345 11.9225-17.6345 11.9225 0ZM3.07029-6.37676C3.07029-4.73227 3.41144-3.50765 4.10247-2.70291 4.78476-1.88941 5.59825-1.47829 6.54296-1.48704 7.47891-1.47829 8.28366-1.87192 8.94845-2.65042 9.61325-3.42018 9.94564-4.60106 9.94564-6.19307 9.94564-7.94252 9.6045-9.21962 8.93096-10.0419 8.25742-10.8466 7.42643-11.2577 6.44674-11.2665 5.47579-11.2577 4.67104-10.8641 4.03249-10.0856 3.38519-9.29835 3.07029-8.06498 3.07029-6.37676Z" transform="matrix(1.00136 0 0 1 478.648 667.485)"/><path d="M10.3655-4.11122 12.6048-3.84005C12.2462-2.51921 11.5901-1.50453 10.6367-0.787255 9.68323-0.0699781 8.46735 0.288659 6.98907 0.288659 5.1084 0.288659 3.62137-0.279913 2.53671-1.43455 1.43455-2.58044 0.892222-4.19869 0.900969-6.28054 0.892222-8.42362 1.4433-10.0856 2.56295-11.2752 3.66511-12.4561 5.09966-13.0509 6.8666-13.0597 8.56358-13.0509 9.96314-12.4736 11.0478-11.3102 12.1325-10.1468 12.6748-8.51109 12.6748-6.41175 12.6748-6.28054 12.666-6.0881 12.666-5.83443L3.14027-5.83443C3.21025-4.42612 3.61262-3.3502 4.3299-2.60669 5.03843-1.85442 5.9219-1.47829 6.99781-1.48704 7.78507-1.47829 8.46735-1.68822 9.02718-2.11684 9.58701-2.52796 10.0331-3.19275 10.3655-4.11122ZM3.26273-7.61012 10.3918-7.61012C10.2955-8.68604 10.0156-9.49078 9.56951-10.0331 8.86973-10.8641 7.97751-11.284 6.89285-11.284 5.88691-11.284 5.05592-10.9516 4.38238-10.2868 3.70009-9.62199 3.32396-8.72977 3.26273-7.61012Z" transform="matrix(1.00136 0 0 1 492.366 667.485)"/><path d="M1.62699 0 1.62699-12.771 3.56889-12.771 3.56889-10.9603C4.50484-12.3511 5.86067-13.0509 7.63636-13.0597 8.40612-13.0509 9.1059-12.911 9.7532-12.6398 10.3918-12.3599 10.8816-12.0013 11.2052-11.5551 11.5202-11.1003 11.7388-10.5667 11.8788-9.95439 11.9488-9.55202 11.9925-8.85223 12.0013-7.85505L12.0013 0 9.84068 0 9.84068-7.76757C9.84068-8.65105 9.7532-9.30709 9.58701-9.74446 9.41206-10.1731 9.11465-10.523 8.68604-10.7941 8.25742-11.0478 7.75008-11.179 7.18151-11.1878 6.2543-11.179 5.45829-10.8816 4.7935-10.3043 4.11122-9.70947 3.77882-8.60731 3.78757-6.98032L3.78757 0Z" transform="matrix(1.00136 0 0 1 506.084 667.485)"/><path d="M6.35052-1.93315 6.66542-0.0262419C6.05311 0.0962201 5.50203 0.157451 5.02968 0.166198 4.23368 0.157451 3.63012 0.0437365 3.2015-0.201187 2.76414-0.446111 2.45798-0.778506 2.28304-1.18088 2.10809-1.58325 2.02062-2.43174 2.02062-3.74383L2.02062-11.0915 0.437365-11.0915 0.437365-12.771 2.02062-12.771 2.02062-15.9375 4.17245-17.2321 4.17245-12.771 6.35052-12.771 6.35052-11.0915 4.17245-11.0915 4.17245-3.62137C4.17245-3.00031 4.20744-2.59794 4.28616-2.43174 4.35614-2.24805 4.4786-2.10809 4.65355-2.01187 4.81975-1.89816 5.06467-1.84567 5.39706-1.85442 5.63324-1.84567 5.95689-1.87192 6.35052-1.93315Z" transform="matrix(1.00136 0 0 1 519.802 667.485)"/><path d="M-0.376133 4.89847-0.376133 3.33271 13.9781 3.33271 13.9781 4.89847Z" transform="matrix(1.00136 0 0 1 526.655 667.485)"/><path d="M5.16964 0 0.314902-12.771 2.59794-12.771 5.33583-5.1259C5.62449-4.29491 5.89566-3.43768 6.15808-2.5542 6.34177-3.21899 6.61293-4.02374 6.96282-4.97719L9.80569-12.771 12.0275-12.771 7.19026 0Z" transform="matrix(1.00136 0 0 1 540.372 667.485)"/><path d="M0-9.91065-1.6095-9.91065C-0.341144-9.08841 0.288659-7.89878 0.288659-6.34177 0.288659-5.30959 0.00874727-4.37363-0.551078-3.52515-1.1109-2.66792-1.88941-2.00312-2.90409-1.53952-3.90128-1.06717-5.06467-0.839738-6.37676-0.839738-7.64511-0.839738-8.79975-1.04967-9.84068-1.47829-10.8816-1.89816-11.6776-2.53671-12.2287-3.39394-12.7798-4.24242-13.0509-5.19588-13.0597-6.24555-13.0509-7.01531-12.8935-7.6976-12.5698-8.30116-12.2462-8.89597-11.8176-9.38582-11.3015-9.76195L-17.6345-9.7707-17.6345-11.9225 0-11.9225ZM-6.37676-3.07029C-4.73227-3.07029-3.50765-3.41144-2.70291-4.10247-1.88941-4.78476-1.47829-5.59825-1.48704-6.54296-1.47829-7.47891-1.87192-8.28366-2.65042-8.94845-3.42018-9.61325-4.60106-9.94564-6.19307-9.94564-7.94252-9.94564-9.21962-9.6045-10.0419-8.93096-10.8466-8.25742-11.2577-7.42643-11.2665-6.44674-11.2577-5.47579-10.8641-4.67104-10.0856-4.03249-9.29835-3.38519-8.06498-3.07029-6.37676-3.07029Z" transform="matrix(1.00136 0 0 1 -9.06613 381.397)"/><path d="M-4.11122-10.3655-3.84005-12.6048C-2.51921-12.2462-1.50453-11.5901-0.787255-10.6367-0.0699781-9.68323 0.288659-8.46735 0.288659-6.98907 0.288659-5.1084-0.279913-3.62137-1.43455-2.53671-2.58044-1.43455-4.19869-0.892222-6.28054-0.900969-8.42362-0.892222-10.0856-1.4433-11.2752-2.56295-12.4561-3.66511-13.0509-5.09966-13.0597-6.8666-13.0509-8.56358-12.4736-9.96314-11.3102-11.0478-10.1468-12.1325-8.51109-12.6748-6.41175-12.6748-6.28054-12.6748-6.0881-12.666-5.83443-12.666L-5.83443-3.14027C-4.42612-3.21025-3.3502-3.61262-2.60669-4.3299-1.85442-5.03843-1.47829-5.9219-1.48704-6.99781-1.47829-7.78507-1.68822-8.46735-2.10809-9.02718-2.51921-9.58701-3.18401-10.0331-4.11122-10.3655ZM-7.61012-3.26273-7.61012-10.3918C-8.68604-10.2955-9.49078-10.0156-10.0331-9.56951-10.8641-8.86973-11.284-7.97751-11.284-6.89285-11.284-5.88691-10.9516-5.05592-10.2868-4.38238-9.62199-3.70009-8.72977-3.32396-7.61012-3.26273Z" transform="matrix(1.00136 0 0 1 -9.06613 367.698)"/><path d="M4.89847-1.62699-12.771-1.62699-12.771-3.59513-11.109-3.59513C-11.7563-4.05873-12.2462-4.58357-12.5698-5.16964-12.8935-5.7557-13.0509-6.46423-13.0597-7.30397-13.0509-8.38863-12.771-9.35083-12.2199-10.1906-11.6514-11.0216-10.8641-11.6514-9.84068-12.0712-8.81725-12.4911-7.6976-12.701-6.48172-12.7098-5.16964-12.701-3.98875-12.4649-2.94783-12.0013-1.89816-11.5289-1.09341-10.8466-0.542332-9.96314 0.0174945-9.06217 0.288659-8.12621 0.288659-7.14652 0.288659-6.4205 0.139956-5.7732-0.166198-5.19588-0.463605-4.61856-0.848484-4.14621-1.32084-3.78757L4.89847-3.78757ZM-6.31553-3.58638C-4.66229-3.57763-3.44642-3.91003-2.66792-4.58357-1.87192-5.23961-1.47829-6.04436-1.48704-6.99781-1.47829-7.95127-1.88941-8.77351-2.71165-9.46454-3.52515-10.1468-4.78476-10.4967-6.49047-10.4967-8.11746-10.4967-9.33334-10.1556-10.1468-9.49078-10.9516-8.81725-11.3627-8.02124-11.3627-7.09403-11.3627-6.16682-10.9253-5.35333-10.0681-4.6448-9.20213-3.93627-7.95127-3.57763-6.31553-3.58638Z" transform="matrix(1.00136 0 0 1 -9.06613 353.998)"/><path d="M-4.11122-10.3655-3.84005-12.6048C-2.51921-12.2462-1.50453-11.5901-0.787255-10.6367-0.0699781-9.68323 0.288659-8.46735 0.288659-6.98907 0.288659-5.1084-0.279913-3.62137-1.43455-2.53671-2.58044-1.43455-4.19869-0.892222-6.28054-0.900969-8.42362-0.892222-10.0856-1.4433-11.2752-2.56295-12.4561-3.66511-13.0509-5.09966-13.0597-6.8666-13.0509-8.56358-12.4736-9.96314-11.3102-11.0478-10.1468-12.1325-8.51109-12.6748-6.41175-12.6748-6.28054-12.6748-6.0881-12.666-5.83443-12.666L-5.83443-3.14027C-4.42612-3.21025-3.3502-3.61262-2.60669-4.3299-1.85442-5.03843-1.47829-5.9219-1.48704-6.99781-1.47829-7.78507-1.68822-8.46735-2.10809-9.02718-2.51921-9.58701-3.18401-10.0331-4.11122-10.3655ZM-7.61012-3.26273-7.61012-10.3918C-8.68604-10.2955-9.49078-10.0156-10.0331-9.56951-10.8641-8.86973-11.284-7.97751-11.284-6.89285-11.284-5.88691-10.9516-5.05592-10.2868-4.38238-9.62199-3.70009-8.72977-3.32396-7.61012-3.26273Z" transform="matrix(1.00136 0 0 1 -9.06613 340.299)"/><path d="M0-1.62699-12.771-1.62699-12.771-3.56889-10.9603-3.56889C-12.3511-4.50484-13.0509-5.86067-13.0597-7.63636-13.0509-8.40612-12.911-9.1059-12.6398-9.7532-12.3599-10.3918-12.0013-10.8816-11.5551-11.2052-11.1003-11.5202-10.5667-11.7388-9.95439-11.8788-9.55202-11.9488-8.85223-11.9925-7.85505-12.0013L0-12.0013 0-9.84068-7.76757-9.84068C-8.65105-9.84068-9.30709-9.7532-9.74446-9.58701-10.1731-9.41206-10.523-9.11465-10.7941-8.68604-11.0478-8.25742-11.179-7.75008-11.1878-7.18151-11.179-6.2543-10.8816-5.45829-10.3043-4.7935-9.70947-4.11122-8.60731-3.77882-6.98032-3.78757L0-3.78757Z" transform="matrix(1.00136 0 0 1 -9.06613 326.6)"/><path d="M0-9.91065-1.6095-9.91065C-0.341144-9.08841 0.288659-7.89878 0.288659-6.34177 0.288659-5.30959 0.00874727-4.37363-0.551078-3.52515-1.1109-2.66792-1.88941-2.00312-2.90409-1.53952-3.90128-1.06717-5.06467-0.839738-6.37676-0.839738-7.64511-0.839738-8.79975-1.04967-9.84068-1.47829-10.8816-1.89816-11.6776-2.53671-12.2287-3.39394-12.7798-4.24242-13.0509-5.19588-13.0597-6.24555-13.0509-7.01531-12.8935-7.6976-12.5698-8.30116-12.2462-8.89597-11.8176-9.38582-11.3015-9.76195L-17.6345-9.7707-17.6345-11.9225 0-11.9225ZM-6.37676-3.07029C-4.73227-3.07029-3.50765-3.41144-2.70291-4.10247-1.88941-4.78476-1.47829-5.59825-1.48704-6.54296-1.47829-7.47891-1.87192-8.28366-2.65042-8.94845-3.42018-9.61325-4.60106-9.94564-6.19307-9.94564-7.94252-9.94564-9.21962-9.6045-10.0419-8.93096-10.8466-8.25742-11.2577-7.42643-11.2665-6.44674-11.2577-5.47579-10.8641-4.67104-10.0856-4.03249-9.29835-3.38519-8.06498-3.07029-6.37676-3.07029Z" transform="matrix(1.00136 0 0 1 -9.06613 312.9)"/><path d="M-4.11122-10.3655-3.84005-12.6048C-2.51921-12.2462-1.50453-11.5901-0.787255-10.6367-0.0699781-9.68323 0.288659-8.46735 0.288659-6.98907 0.288659-5.1084-0.279913-3.62137-1.43455-2.53671-2.58044-1.43455-4.19869-0.892222-6.28054-0.900969-8.42362-0.892222-10.0856-1.4433-11.2752-2.56295-12.4561-3.66511-13.0509-5.09966-13.0597-6.8666-13.0509-8.56358-12.4736-9.96314-11.3102-11.0478-10.1468-12.1325-8.51109-12.6748-6.41175-12.6748-6.28054-12.6748-6.0881-12.666-5.83443-12.666L-5.83443-3.14027C-4.42612-3.21025-3.3502-3.61262-2.60669-4.3299-1.85442-5.03843-1.47829-5.9219-1.48704-6.99781-1.47829-7.78507-1.68822-8.46735-2.10809-9.02718-2.51921-9.58701-3.18401-10.0331-4.11122-10.3655ZM-7.61012-3.26273-7.61012-10.3918C-8.68604-10.2955-9.49078-10.0156-10.0331-9.56951-10.8641-8.86973-11.284-7.97751-11.284-6.89285-11.284-5.88691-10.9516-5.05592-10.2868-4.38238-9.62199-3.70009-8.72977-3.32396-7.61012-3.26273Z" transform="matrix(1.00136 0 0 1 -9.06613 299.201)"/><path d="M0-1.62699-12.771-1.62699-12.771-3.56889-10.9603-3.56889C-12.3511-4.50484-13.0509-5.86067-13.0597-7.63636-13.0509-8.40612-12.911-9.1059-12.6398-9.7532-12.3599-10.3918-12.0013-10.8816-11.5551-11.2052-11.1003-11.5202-10.5667-11.7388-9.95439-11.8788-9.55202-11.9488-8.85223-11.9925-7.85505-12.0013L0-12.0013 0-9.84068-7.76757-9.84068C-8.65105-9.84068-9.30709-9.7532-9.74446-9.58701-10.1731-9.41206-10.523-9.11465-10.7941-8.68604-11.0478-8.25742-11.179-7.75008-11.1878-7.18151-11.179-6.2543-10.8816-5.45829-10.3043-4.7935-9.70947-4.11122-8.60731-3.77882-6.98032-3.78757L0-3.78757Z" transform="matrix(1.00136 0 0 1 -9.06613 285.502)"/><path d="M-1.93315-6.35052-0.0262419-6.66542C0.0962201-6.05311 0.157451-5.50203 0.166198-5.02968 0.157451-4.23368 0.0437365-3.63012-0.201187-3.2015-0.446111-2.76414-0.778506-2.45798-1.18088-2.28304-1.58325-2.10809-2.43174-2.02062-3.74383-2.02062L-11.0915-2.02062-11.0915-0.437365-12.771-0.437365-12.771-2.02062-15.9375-2.02062-17.2321-4.17245-12.771-4.17245-12.771-6.35052-11.0915-6.35052-11.0915-4.17245-3.62137-4.17245C-3.00031-4.17245-2.59794-4.20744-2.42299-4.28616-2.2393-4.35614-2.09934-4.4786-2.00312-4.65355-1.89816-4.81975-1.84567-5.06467-1.85442-5.39706-1.84567-5.63324-1.87192-5.95689-1.93315-6.35052Z" transform="matrix(1.00136 0 0 1 -9.06613 271.802)"/><path d="M4.89847 0.376133 3.33271 0.376133 3.33271-13.9781 4.89847-13.9781Z" transform="matrix(1.00136 0 0 1 -9.06613 264.959)"/><path d="M0-5.16964-12.771-0.314902-12.771-2.59794-5.1259-5.33583C-4.29491-5.62449-3.43768-5.89566-2.54546-6.15808-3.21899-6.34177-4.02374-6.61293-4.97719-6.96282L-12.771-9.80569-12.771-12.0275 0-7.19026Z" transform="matrix(1.00136 0 0 1 -9.06613 251.259)"/></g></g><path d="M523.167 113.93 523.168 208.899 518.833 208.899 518.833 113.93ZM527.502 206.733 521 219.73 514.498 206.733Z" fill="#FF6900"/><text font-family="Calibri,Calibri_MSFontService,sans-serif" font-weight="700" font-size="24" transform="matrix(1 0 0 0.999384 467.354 78)">Confidence <tspan font-size="24" x="17.5197" y="29.0179">Interval</tspan></text><path d="M275.167 151.906 275.168 251.03 270.833 251.03 270.833 151.906ZM279.502 248.864 273 261.86 266.498 248.864Z" fill="#FF6900"/><text font-family="Calibri,Calibri_MSFontService,sans-serif" font-weight="700" font-size="24" transform="matrix(1 0 0 0.999384 253.321 109)">Data <tspan font-size="24" x="-7.42268" y="29.0179">Points</tspan></text><path d="M2.16612-1.70136e-06 2.16621 122.801-2.16602 122.801-2.16612 1.70136e-06ZM6.49844 120.635 0.00010496 133.632-6.49825 120.635Z" fill="#FF6900" transform="matrix(1.00062 0 0 -1 474 478.419)"/><text font-family="Calibri,Calibri_MSFontService,sans-serif" font-weight="700" font-size="24" transform="matrix(1 0 0 0.999384 420.711 505)">Regression <tspan font-size="24" x="33.2054" y="29.0179">Line</tspan></text></g></svg>